<svg xmlns="http://www.w3.org/2000/svg">
  <symbol id="floppy" fill="currentColor">
    <path d="M.5.5h3v3h-3zm0 3h3v3h-3zm0 3h3v3h-3zm0 3h3v3h-3zm0 3h3v3h-3zm0 3h3v3h-3zm0 3h3v3h-3zm0 3h3v3h-3zm0 3h3v3h-3zm0 3h3v3h-3zm0 3h3v3h-3zm0 3h3v3h-3zm0 3h3v3h-3zm33-36v3h-3v-3zm-3 0v3h-3v-3zm-3 0v3h-3v-3zm-3 0v3h-3v-3zm-3 0v3h-3v-3zm-3 0v3h-3v-3zm-3 0v3h-3v-3zm-3 0v3h-3v-3zm-3 0v3h-3v-3zm-3 0v3h-3v-3zm30 3v3h-3v-3zm-27 3v3h-3v-3zm0-3v3h-3v-3zm0 6v3h-3v-3zm21-3v3h-3v-3zm0-3v3h-3v-3zm0 6v3h-3v-3zm-6-3v3h-3v-3zm0-3v3h-3v-3zm0 6v3h-3v-3zm6 3v3h-3v-3zm-3 0v3h-3v-3zm-3 0v3h-3v-3zm-3 0v3h-3v-3zm-3 0v3h-3v-3zm-3 0v3h-3v-3zm-3 0v3h-3v-3zm-3 0v3h-3v-3zm24 9v3h-3v-3zm-3 0v3h-3v-3zm-3 0v3h-3v-3zm-3 0v3h-3v-3zm-3 0v3h-3v-3zm-3 0v3h-3v-3zm-3 0v3h-3v-3zm-3 0v3h-3v-3zm-3 0v3h-3v-3zm24 3v3h-3v-3zm-24 0v3h-3v-3zm24 3v3h-3v-3zm-24 0v3h-3v-3zm24 3v3h-3v-3zm-24 0v3h-3v-3zm0 3v3h-3v-3zm24 0v3h-3v-3zm3 3v3h-3v-3zm-3 0v3h-3v-3zm-3 0v3h-3v-3zm-3 0v3h-3v-3zm-3 0v3h-3v-3zm-3 0v3h-3v-3zm-3 0v3h-3v-3zm-3 0v3h-3v-3zm-3 0v3h-3v-3zm-3 0v3h-3v-3zm-3 0v3h-3v-3zm33 3h-3v-3h3zm0-3h-3v-3h3zm0-3h-3v-3h3zm0-3h-3v-3h3zm0-3h-3v-3h3zm0-3h-3v-3h3zm0-3h-3v-3h3zm0-3h-3v-3h3zm0-3h-3v-3h3zm0-3h-3v-3h3zm0-3h-3v-3h3z"/>
  </symbol>
</svg>